<?xml version="1.0" ?>
<svg height="100%" width="100%" xmlns="http://www.w3.org/2000/svg" viewBox="0, 0, 512 512">
	<path d="M 255.65625 40.15625 C 241.32689 40.18325 226.78659 41.6394 212.21875 44.65625 C 95.676057 68.79108 20.521418 183.23856 44.65625 299.78125 C 68.791082 416.32394 183.20731 491.47855 299.75 467.34375 L 293.65625 437.96875 C 192.98989 458.81575 94.878251 394.35386 74.03125 293.6875 C 53.184249 193.02114 117.64615 94.87825 218.3125 74.03125 C 318.97886 53.18425 417.0905 117.64614 437.9375 218.3125 C 446.65162 260.3914 440.51191 304.15126 420.625 342.15625 L 400.09375 330.28125 L 389.90625 428.96875 L 470.28125 370.8125 L 446.625 357.15625 C 470.18386 312.76505 477.51726 261.52695 467.3125 212.25 C 446.19452 110.27514 355.96179 39.96747 255.65625 40.15625 z " style="fill:#000000;stroke:none"/>
</svg>